<?xml version="1.0" encoding="iso-8859-1"?>
<!-- Uploaded to: SVG Repo, www.svgrepo.com, Generator: SVG Repo Mixer Tools -->
<svg height="800px" width="800px" version="1.1" id="Layer_1" xmlns="http://www.w3.org/2000/svg" xmlns:xlink="http://www.w3.org/1999/xlink" 
	 viewBox="0 0 512 512" xml:space="preserve">
<path style="fill:#66C6FE;" d="M348.835,0c-4.661,0-8.44,3.779-8.44,8.44v118.154l16.879-8.44V8.44
	C357.275,3.779,353.496,0,348.835,0z"/>
<g>
	<path style="fill:#99D9FF;" d="M253.187,0c-4.661,0-8.44,3.779-8.44,8.44v109.714l16.879,8.44V8.44
		C261.626,3.779,257.848,0,253.187,0z"/>
	<path style="fill:#99D9FF;" d="M285.069,0c-4.661,0-8.44,3.779-8.44,8.44v118.154h16.879V8.44C293.509,3.779,289.73,0,285.069,0z"
		/>
	<path style="fill:#99D9FF;" d="M316.953,0c-4.661,0-8.44,3.779-8.44,8.44v118.154h16.879V8.44C325.392,3.779,321.614,0,316.953,0z"
		/>
</g>
<g>
	<path style="fill:#66C6FE;" d="M104.088,199.491v290.004c0,12.43,10.076,22.505,22.506,22.505s22.505-10.076,22.505-22.505V199.491
		H104.088z"/>
	<path style="fill:#66C6FE;" d="M278.505,197.855v291.64c0,12.43,10.076,22.505,22.506,22.505c12.43,0,22.505-10.076,22.505-22.505
		v-291.64H278.505z"/>
	<path style="fill:#66C6FE;" d="M126.593,0v225.055c46.609,0,84.396-37.787,84.396-84.396S189.44,0,126.593,0z"/>
	<path style="fill:#66C6FE;" d="M325.392,118.154l-24.381,106.901c31.069,0,56.264-25.195,56.264-56.264v-50.637H325.392z"/>
</g>
<g>
	<path style="fill:#99D9FF;" d="M126.593,0c37.708,0,50.637,94.05,50.637,140.659s-22.674,84.396-50.637,84.396
		c-46.609,0-84.396-37.787-84.396-84.396S63.747,0,126.593,0z"/>
	<path style="fill:#99D9FF;" d="M325.392,118.154v50.637c0,31.069-11.947,56.264-24.381,56.264
		c-31.069,0-56.264-25.195-56.264-56.264v-50.637H325.392z"/>
</g>
<path style="fill:#5CA8D3;" d="M424.791,236.308v253.187c0,12.434,10.071,22.505,22.505,22.505s22.505-10.071,22.505-22.505V236.308
	H424.791z"/>
<path style="fill:#66C6FE;" d="M430.418,0c-6.031,0-11.759,1.362-16.879,3.792l22.505,266.274h33.758V39.385
	C469.802,17.633,452.169,0,430.418,0z"/>
<path style="fill:#99D9FF;" d="M436.044,39.385v230.681h-11.253c-18.567,0-33.758-15.191-33.758-33.758V39.385
	c0-15.709,9.205-29.268,22.505-35.592C426.839,10.116,436.044,23.676,436.044,39.385z"/>
<g>
	<circle style="fill:#66C6FE;" cx="92.835" cy="123.78" r="8.44"/>
	<circle style="fill:#66C6FE;" cx="126.593" cy="157.538" r="8.44"/>
</g>
</svg>