<?xml version="1.0" encoding="iso-8859-1"?>
<!-- Uploaded to: SVG Repo, www.svgrepo.com, Generator: SVG Repo Mixer Tools -->
<svg height="800px" width="800px" version="1.1" id="Layer_1" xmlns="http://www.w3.org/2000/svg" xmlns:xlink="http://www.w3.org/1999/xlink" 
	 viewBox="0 0 512 512" xml:space="preserve">
<polygon style="fill:#FDA162;" points="150.99,428.545 116.645,463.518 123.87,512 79.991,490.153 64.895,438.136 79.991,376.967 
	102.648,420.436 "/>
<polygon style="fill:#FDCE6E;" points="79.991,376.967 79.991,490.153 36.124,512 43.338,463.518 9.002,428.545 57.345,420.436 "/>
<polygon style="fill:#FDA162;" points="326.995,428.545 292.648,463.518 299.873,512 255.994,490.153 240.898,438.136 
	255.994,376.967 278.652,420.436 "/>
<polygon style="fill:#FDCE6E;" points="255.994,376.967 255.994,490.153 212.127,512 219.341,463.518 185.006,428.545 
	233.349,420.436 "/>
<polygon style="fill:#FDA162;" points="502.998,428.545 468.652,463.518 475.878,512 431.999,490.153 416.901,438.136 
	431.999,376.967 454.655,420.436 "/>
<polygon style="fill:#FDCE6E;" points="431.999,376.967 431.999,490.153 388.131,512 395.345,463.518 361.01,428.545 
	409.352,420.436 "/>
<polygon style="fill:#66C6FE;" points="470.916,182.857 470.916,216.615 454.037,247.572 437.158,216.615 437.158,165.989 "/>
<g>
	<path style="fill:#99D9FF;" d="M470.916,216.615v109.726c0,9.317-7.562,16.879-16.879,16.879s-16.879-7.562-16.879-16.879V216.615
		H470.916z"/>
	<path style="fill:#99D9FF;" d="M445.609,0c-13.984,0-25.319,11.336-25.319,25.319v132.22c0,13.984,11.335,25.319,25.319,25.319
		h25.319c0-73.085,0-157.538,0-157.538C470.927,11.336,459.593,0,445.609,0z"/>
</g>
<g>
	<path style="fill:#66C6FE;" d="M355.587,0c-4.661,0-8.44,3.779-8.44,8.44V93.96h16.879V8.44C364.026,3.779,360.248,0,355.587,0z"/>
	<path style="fill:#66C6FE;" d="M389.345,0c-4.661,0-8.44,3.779-8.44,8.44V93.96l16.879-35.446V8.44
		C397.785,3.779,394.006,0,389.345,0z"/>
	<path style="fill:#66C6FE;" d="M321.829,0c-4.661,0-8.44,3.779-8.44,8.44v50.075l16.879,35.446V8.44
		C330.268,3.779,326.489,0,321.829,0z"/>
</g>
<path style="fill:#99D9FF;" d="M313.389,58.514v18.573c0,17.302,10.418,32.164,25.319,38.677V326.33
	c0,9.322,7.557,16.879,16.879,16.879s16.879-7.557,16.879-16.879V115.764c14.901-6.512,25.319-21.375,25.319-38.677V58.514H313.389z
	"/>
<path style="fill:#EF431D;" d="M177.231,207.062l102.4,136.158h33.758C313.389,268.018,252.433,207.062,177.231,207.062z"/>
<path style="fill:#FE9F88;" d="M177.231,0v173.292c47.858,0,86.646-38.788,86.646-86.646S225.089,0,177.231,0z"/>
<path style="fill:#FD7555;" d="M177.231,207.062c56.556,0,102.4,60.956,102.4,136.158H41.073
	C41.073,268.018,102.029,207.062,177.231,207.062z"/>
<path style="fill:#FEC8BB;" d="M177.231,0c29.212,0,52.888,38.788,52.888,86.646s-23.676,86.646-52.888,86.646
	c-47.858,0-86.646-38.788-86.646-86.646S129.373,0,177.231,0z"/>
<path style="fill:#FD7555;" d="M177.231,125.468c-11.882,0-22.539-7.521-26.519-18.717c-1.561-4.392,0.734-9.217,5.126-10.779
	c4.391-1.559,9.217,0.734,10.779,5.126c1.593,4.481,5.859,7.491,10.615,7.491c4.755,0,9.022-3.01,10.615-7.491
	c1.561-4.392,6.389-6.684,10.779-5.126c4.392,1.562,6.686,6.387,5.126,10.779C199.77,117.947,189.113,125.468,177.231,125.468z"/>
</svg>