<?xml version="1.0" encoding="iso-8859-1"?>
<!-- Uploaded to: SVG Repo, www.svgrepo.com, Generator: SVG Repo Mixer Tools -->
<svg version="1.1" id="Layer_1" xmlns="http://www.w3.org/2000/svg" xmlns:xlink="http://www.w3.org/1999/xlink" 
	 viewBox="0 0 512 512" xml:space="preserve">
<g>
	<rect x="59.077" y="25.323" style="fill:#EF431D;" width="16.879" height="101.274"/>
	<rect x="436.042" y="25.323" style="fill:#EF431D;" width="16.879" height="101.274"/>
</g>
<path style="fill:#FD7555;" d="M488.572,298.199l23.427-180.043H385.372C347.124,96.663,302.991,84.397,256,84.397
	s-91.124,12.265-129.361,33.758H0.001l20.052,180.043L0.001,478.242h126.672C164.909,499.723,209.02,512,256,512
	c46.991,0,91.113-12.265,129.35-33.758h126.649L488.572,298.199z"/>
<polygon style="fill:#EF431D;" points="511.999,118.156 511.999,478.242 478.241,444.484 478.241,151.914 "/>
<polygon style="fill:#FDCE6E;" points="478.241,151.914 478.241,444.484 444.483,444.484 388.219,298.199 444.483,151.914 "/>
<path style="fill:#FEFDCA;" d="M444.483,151.914v292.57h-67.966l-7.708,4.332C334.555,468.07,295.542,478.242,256,478.242
	c-39.519,0-78.521-10.172-112.797-29.426l-7.697-4.332H33.759v-292.57h101.713l7.697-4.332
	c34.264-19.242,73.278-29.426,112.831-29.426s78.578,10.184,112.831,29.426l7.697,4.332L444.483,151.914L444.483,151.914z"/>
<polygon style="fill:#FE9F88;" points="33.759,151.914 33.759,444.484 0.001,478.242 0.001,118.156 "/>
<path style="fill:#FD7555;" d="M305.84,224.498h-16.879v-8.44c0-13.961-11.358-25.319-25.319-25.319h-16.879
	c-13.96,0-25.319,11.357-25.319,25.319v8.44h-16.879v-8.44c0-23.268,18.929-42.198,42.198-42.198h16.879
	c23.268,0,42.198,18.929,42.198,42.198V224.498z"/>
<path style="fill:#FDA162;" d="M319.906,216.059h-33.758l33.758,56.263h33.758v-22.505
	C353.664,231.25,338.473,216.059,319.906,216.059z"/>
<path style="fill:#FDCE6E;" d="M286.148,216.059H190.5c-18.567,0-33.758,15.191-33.758,33.758v22.505h163.164v-22.505
	C319.906,231.25,304.715,216.059,286.148,216.059z"/>
<g>
	<path style="fill:#FD7555;" d="M378.983,297.641H131.424c-4.662,0-8.44,3.779-8.44,8.44s3.778,8.44,8.44,8.44h247.559
		c4.662,0,8.44-3.779,8.44-8.44S383.644,297.641,378.983,297.641z"/>
	<path style="fill:#FD7555;" d="M156.742,272.322v33.758l163.164,101.274c18.567,0,33.758-15.191,33.758-33.758V272.322H156.742
		L156.742,272.322z"/>
</g>
<g>
	<path style="fill:#FDA162;" d="M156.742,306.08v67.516c0,18.567,15.191,33.758,33.758,33.758h129.406V306.08H156.742z"/>
	<path style="fill:#FDA162;" d="M356.478,280.762H153.929c-4.662,0-8.44-3.779-8.44-8.44c0-4.661,3.778-8.44,8.44-8.44h202.549
		c4.662,0,8.44,3.779,8.44,8.44C364.917,276.983,361.138,280.762,356.478,280.762z"/>
</g>
<polygon style="fill:#FE9F88;" points="511.999,0 511.999,33.758 478.241,33.758 455.735,16.879 478.241,0 "/>
<g>
	<path style="fill:#FDCE6E;" d="M478.241,0v33.758H16.88c-9.317,0-16.879-7.551-16.879-16.879C0.001,7.562,7.563,0,16.88,0H478.241z
		"/>
	<circle style="fill:#FDCE6E;" cx="414.009" cy="402.284" r="8.44"/>
	<circle style="fill:#FDCE6E;" cx="109.714" cy="194.109" r="8.44"/>
	<circle style="fill:#FDCE6E;" cx="75.956" cy="227.867" r="8.44"/>
</g>
</svg>