<?xml version="1.0" encoding="iso-8859-1"?>
<!-- Uploaded to: SVG Repo, www.svgrepo.com, Generator: SVG Repo Mixer Tools -->
<svg version="1.1" id="Layer_1" xmlns="http://www.w3.org/2000/svg" xmlns:xlink="http://www.w3.org/1999/xlink" 
	 viewBox="0 0 512 512" xml:space="preserve">
<path style="fill:#5CA8D3;" d="M359.492,0c-4.513,0-8.17,3.658-8.17,8.17v27.234h16.34V8.17C367.662,3.658,364.005,0,359.492,0z"/>
<path style="fill:#FDA162;" d="M152.513,89.872L98.045,144.34l54.468-21.787c17.974,0,32.681-14.706,32.681-32.681H152.513z"/>
<path style="fill:#FDCE6E;" d="M43.577,89.872h108.936c0,17.974-14.706,32.681-32.681,32.681L98.045,144.34l-21.787-21.787
	C58.283,122.553,43.577,107.847,43.577,89.872z"/>
<path style="fill:#FDA162;" d="M152.513,122.553l-54.468,54.468l54.468-21.787c17.974,0,32.681-14.706,32.681-32.681H152.513z"/>
<path style="fill:#FDCE6E;" d="M43.577,122.553h108.936c0,17.974-14.706,32.681-32.681,32.681l-21.787,21.787l-21.787-21.787
	C58.283,155.234,43.577,140.528,43.577,122.553z"/>
<path style="fill:#FDA162;" d="M152.513,155.234l-54.468,54.468l54.468-21.787c17.974,0,32.681-14.706,32.681-32.681H152.513z"/>
<path style="fill:#FDCE6E;" d="M43.577,155.234h108.936c0,17.974-14.706,32.681-32.681,32.681l-21.787,21.787l-21.787-21.787
	C58.283,187.915,43.577,173.209,43.577,155.234z"/>
<path style="fill:#FDA162;" d="M152.513,187.915l-54.468,54.468l54.468-21.787c17.974,0,32.681-14.706,32.681-32.681H152.513z"/>
<path style="fill:#FDCE6E;" d="M43.577,187.915h108.936c0,17.974-14.706,32.681-32.681,32.681l-21.787,21.787l-21.787-21.787
	C58.283,220.596,43.577,205.889,43.577,187.915z"/>
<path style="fill:#66C6FE;" d="M359.492,24.511v119.83l98.043-21.787C457.534,68.401,413.644,24.511,359.492,24.511z"/>
<path style="fill:#99D9FF;" d="M424.853,122.553l-81.702,21.787l-81.702-21.787c0-54.152,43.89-98.043,98.043-98.043
	C395.593,24.511,424.853,68.401,424.853,122.553z"/>
<rect x="250.553" y="122.553" style="fill:#5CA8D3;" width="185.191" height="32.681"/>
<rect x="435.745" y="122.553" style="fill:#5389A9;" width="32.681" height="32.681"/>
<g>
	<path style="fill:#FDFA7B;" d="M187.917,196.085H40.853c-4.513,0-8.17-3.658-8.17-8.17s3.657-8.17,8.17-8.17h147.064
		c4.513,0,8.17,3.658,8.17,8.17S192.43,196.085,187.917,196.085z"/>
	<path style="fill:#FDFA7B;" d="M187.917,163.404H40.853c-4.513,0-8.17-3.658-8.17-8.17s3.657-8.17,8.17-8.17h147.064
		c4.513,0,8.17,3.658,8.17,8.17S192.43,163.404,187.917,163.404z"/>
	<path style="fill:#FDFA7B;" d="M187.917,130.723H40.853c-4.513,0-8.17-3.658-8.17-8.17c0-4.512,3.657-8.17,8.17-8.17h147.064
		c4.513,0,8.17,3.658,8.17,8.17C196.087,127.065,192.43,130.723,187.917,130.723z"/>
	<path style="fill:#FDFA7B;" d="M187.917,98.043H40.853c-4.513,0-8.17-3.658-8.17-8.17s3.657-8.17,8.17-8.17h147.064
		c4.513,0,8.17,3.658,8.17,8.17S192.43,98.043,187.917,98.043z"/>
</g>
<rect x="242.383" y="122.553" style="fill:#5389A9;" width="16.34" height="119.83"/>
<rect x="460.255" y="122.553" style="fill:#496A7E;" width="16.34" height="119.83"/>
<path style="fill:#B1786B;" d="M452.085,431.198v72.632c0,4.512,3.657,8.17,8.17,8.17c4.513,0,8.17-3.658,8.17-8.17v-72.632H452.085
	z"/>
<path style="fill:#CB9385;" d="M43.579,431.198v72.632c0,4.512,3.657,8.17,8.17,8.17s8.17-3.658,8.17-8.17v-72.632H43.579z"/>
<path style="fill:#FDA162;" d="M256.002,242.384L19.068,285.959v32.336l403.059,79.323l37.804,66.1
	c8.105,4.075,17.513,7.432,33.004,7.432V285.957L256.002,242.384z"/>
<polygon style="fill:#99D9FF;" points="495.777,220.596 495.777,285.957 463.101,285.957 440.011,256.004 463.101,220.596 "/>
<rect x="16.223" y="220.596" style="fill:#CCECFF;" width="446.878" height="65.362"/>
<path style="fill:#FDCE6E;" d="M459.932,318.638H19.058v152.511c39.49,0,39.49-21.787,78.981-21.787s39.49,21.787,78.981,21.787
	s39.49-21.787,78.981-21.787s39.49,21.787,78.981,21.787c39.489,0,39.489-21.787,78.978-21.787c23.996,0,33.416,8.043,45.971,14.356
	V318.638H459.932z"/>
<g>
	<circle style="fill:#FDA162;" cx="435.418" cy="373.106" r="8.17"/>
	<circle style="fill:#FDA162;" cx="402.737" cy="405.787" r="8.17"/>
</g>
<path style="fill:#5389A9;" d="M479.321,130.723h-239.66c-4.513,0-8.17-3.658-8.17-8.17c0-4.512,3.657-8.17,8.17-8.17h239.66
	c4.513,0,8.17,3.658,8.17,8.17C487.492,127.065,483.835,130.723,479.321,130.723z"/>
</svg>