<?xml version="1.0" encoding="iso-8859-1"?>
<!-- Uploaded to: SVG Repo, www.svgrepo.com, Generator: SVG Repo Mixer Tools -->
<svg height="800px" width="800px" version="1.1" id="Layer_1" xmlns="http://www.w3.org/2000/svg" xmlns:xlink="http://www.w3.org/1999/xlink" 
	 viewBox="0 0 512 512" xml:space="preserve">
<path style="fill:#99D9FF;" d="M260.146,87.184c93.234,0,168.822,75.588,168.822,168.822S353.38,424.827,260.146,424.827
	S91.324,349.239,91.324,256.006S166.912,87.184,260.146,87.184z"/>
<path style="fill:#CCECFF;" d="M260.146,131.465v249.081c68.78,0,124.541-55.761,124.541-124.541S328.925,131.465,260.146,131.465z"
	/>
<path style="fill:#FFFFFF;" d="M260.146,131.465c56.547,0,102.4,55.761,102.4,124.541s-45.853,124.541-102.4,124.541
	c-68.78,0-124.541-55.761-124.541-124.541S191.366,131.465,260.146,131.465z"/>
<path style="fill:#668A30;" d="M289.505,214.905l-99.804,99.804c-3.242,3.242-3.242,8.5,0,11.741
	c1.622,1.621,3.747,2.432,5.872,2.432s4.25-0.81,5.872-2.432l99.804-99.804L289.505,214.905z"/>
<path style="fill:#84B044;" d="M324.731,191.42c8.869,31.147,2.623,63.914-19.57,86.107c-22.193,22.193-54.959,28.438-86.107,19.57
	l38.356-73.582L324.731,191.42z"/>
<path style="fill:#A2C352;" d="M324.731,191.42L219.055,297.096c-8.869-31.147-2.623-63.914,19.57-86.107
	S293.585,182.551,324.731,191.42z"/>
<g>
	<path style="fill:#66C6FE;" d="M41.514,87.173c-4.585,0-8.303,3.717-8.303,8.303v84.134h16.605V95.476
		C49.816,90.89,46.099,87.173,41.514,87.173z"/>
	<path style="fill:#66C6FE;" d="M74.724,87.173c-4.585,0-8.303,3.717-8.303,8.303v84.134l16.605-34.871V95.476
		C83.027,90.89,79.31,87.173,74.724,87.173z"/>
	<path style="fill:#66C6FE;" d="M8.303,87.173C3.717,87.173,0,90.89,0,95.476v49.263l16.605,34.871V95.476
		C16.605,90.89,12.888,87.173,8.303,87.173z"/>
	<polygon style="fill:#66C6FE;" points="511.989,267.065 511.989,300.276 495.384,330.73 478.778,300.276 478.778,250.47 	"/>
</g>
<g>
	<path style="fill:#99D9FF;" d="M511.989,300.276v107.946c0,9.166-7.439,16.605-16.605,16.605c-9.166,0-16.605-7.439-16.605-16.605
		V300.276H511.989z"/>
	<path style="fill:#99D9FF;" d="M487.092,87.173c-13.757,0-24.908,11.152-24.908,24.908v130.076
		c0,13.757,11.151,24.908,24.908,24.908H512c0-71.9,0-154.984,0-154.984C512,98.325,500.849,87.173,487.092,87.173z"/>
	<path style="fill:#99D9FF;" d="M0,144.738v18.271c0,17.022,10.249,31.642,24.908,38.05v207.151c0,9.171,7.435,16.605,16.605,16.605
		s16.605-7.435,16.605-16.605V201.059c14.659-6.407,24.908-21.028,24.908-38.05v-18.271H0z"/>
</g>
</svg>