<?xml version="1.0" encoding="iso-8859-1"?>
<!-- Uploaded to: SVG Repo, www.svgrepo.com, Generator: SVG Repo Mixer Tools -->
<svg height="800px" width="800px" version="1.1" id="Layer_1" xmlns="http://www.w3.org/2000/svg" xmlns:xlink="http://www.w3.org/1999/xlink" 
	 viewBox="0 0 512 512" xml:space="preserve">
<path style="fill:#99D9FF;" d="M118.154,210.709c-18.567,0-33.758,15.191-33.758,33.758v110.277h211.971V210.709H118.154z"/>
<path style="fill:#5CA8D3;" d="M261.356,210.709h-10.42c-73.03,0-132.782,59.752-132.782,132.782v56.264h216.345L261.356,210.709z"
	/>
<path style="fill:#496A7E;" d="M118.154,343.492v56.264H50.637l33.758-76.327C92.723,334.613,102.558,343.492,118.154,343.492z"/>
<g>
	<path style="fill:#5389A9;" d="M84.396,323.428v76.327H33.758V278.541C60.36,278.541,70.195,304.343,84.396,323.428z"/>
	<path style="fill:#5389A9;" d="M295.115,211.823c-5.626-0.731-11.354-1.114-17.172-1.114h-16.587v115.903
		c0,40.33,32.813,73.143,73.143,73.143h33.758L295.115,211.823z"/>
</g>
<path style="fill:#66C6FE;" d="M444.484,343.492c0-73.03-59.752-132.782-132.782-132.782h-16.587v1.114l115.611,187.932h67.517
	V377.25C478.242,358.604,463.129,343.492,444.484,343.492z"/>
<path style="fill:#99D9FF;" d="M410.725,343.492v56.264h-42.468c-40.33,0-73.143-32.813-73.143-73.143v-50.637v-64.152
	C360.11,220.308,410.725,276.279,410.725,343.492z"/>
<circle style="fill:#FFFFFF;" cx="368.257" cy="326.611" r="16.879"/>
<g>
	<path style="fill:#66C6FE;" d="M236.597,309.733c0,9.322,7.557,16.879,16.879,16.879v-33.758
		C244.153,292.854,236.597,300.412,236.597,309.733z"/>
	<path style="fill:#66C6FE;" d="M185.96,292.854c0,9.322,7.557,16.879,16.879,16.879v-33.758
		C193.516,275.975,185.96,283.533,185.96,292.854z"/>
</g>
<path style="fill:#FDA162;" d="M450.11,394.129l-58.14,73.143h33.758c18.567,0,38.562-14.411,44.434-32.025l13.706-41.118H450.11z"
	/>
<path style="fill:#FDCE6E;" d="M28.132,394.129l13.706,41.118c5.872,17.614,25.867,32.025,44.434,32.025h305.7
	c18.567,0,38.562-14.411,44.434-32.025l13.706-41.118H28.132z"/>
<path style="fill:#FDFA7B;" d="M495.121,377.25H16.879C7.557,377.25,0,384.807,0,394.129s7.557,16.879,16.879,16.879h478.242
	c9.322,0,16.879-7.557,16.879-16.879S504.443,377.25,495.121,377.25z"/>
<g>
	<path style="fill:#CCECFF;" d="M284.132,146.007c0-13.321,3.433-19.616,7.409-26.903c4.439-8.138,9.47-17.363,9.47-34.987
		c0-17.622-5.031-26.843-9.47-34.981l-0.005,0.002v-0.009h0.001h-0.001v-0.002c-2.233-4.09-7.357-5.6-11.452-3.363
		c-4.092,2.233-5.597,7.36-3.363,11.452l0.003,0.003l-0.001,0.001c3.976,7.287,7.409,13.58,7.409,26.897
		c0,13.321-3.433,19.616-7.409,26.903c-4.439,8.138-9.47,17.363-9.47,34.987c0,17.623,5.031,26.847,9.47,34.986
		c1.531,2.809,4.428,4.399,7.417,4.399c1.365,0,2.75-0.332,4.034-1.032c4.091-2.231,5.599-7.358,3.367-11.451
		C287.565,165.622,284.132,159.327,284.132,146.007z"/>
	<path style="fill:#CCECFF;" d="M227.868,146.007c0-13.321,3.433-19.616,7.409-26.903c4.439-8.138,9.47-17.363,9.47-34.987
		c0-17.622-5.031-26.843-9.47-34.981l-0.005,0.002v-0.009h0.001h-0.001v-0.002c-2.233-4.09-7.357-5.6-11.452-3.363
		c-4.091,2.233-5.597,7.36-3.363,11.452l0.003,0.003l-0.001,0.001c3.976,7.287,7.409,13.58,7.409,26.897
		c0,13.321-3.433,19.616-7.409,26.903c-4.439,8.138-9.47,17.363-9.47,34.987c0,17.623,5.031,26.847,9.47,34.986
		c1.531,2.809,4.428,4.399,7.417,4.399c1.365,0,2.75-0.332,4.034-1.032c4.092-2.231,5.599-7.358,3.367-11.451
		C231.301,165.622,227.868,159.327,227.868,146.007z"/>
</g>
</svg>