<?xml version="1.0" encoding="iso-8859-1"?>
<!-- Uploaded to: SVG Repo, www.svgrepo.com, Generator: SVG Repo Mixer Tools -->
<svg height="800px" width="800px" version="1.1" id="Layer_1" xmlns="http://www.w3.org/2000/svg" xmlns:xlink="http://www.w3.org/1999/xlink" 
	 viewBox="0 0 512 512" xml:space="preserve">
<path style="fill:#99D9FF;" d="M413.538,337.582l-33.758,87.209L413.538,512h45.011V382.593
	C458.549,357.735,438.398,337.582,413.538,337.582z"/>
<path style="fill:#CCECFF;" d="M357.275,337.582l-33.758-33.758H188.484c-18.567,0-33.758,15.191-33.758,33.758H98.462
	c-24.86,0-45.011,20.153-45.011,45.011V512h270.066l16.879-48.691L357.275,512h56.264V337.582H357.275z"/>
<path style="fill:#99D9FF;" d="M323.517,303.824V512h33.758V337.582C357.275,319.015,342.084,303.824,323.517,303.824z"/>
<path style="fill:#FEC8BB;" d="M143.36,185.67c-18.645,0-33.758,15.115-33.758,33.758c0,18.645,15.114,33.758,33.758,33.758H256
	V185.67H143.36z"/>
<g>
	<path style="fill:#FE9F88;" d="M368.64,185.67H256v67.516h112.64c18.645,0,33.758-15.114,33.758-33.758
		C402.398,200.785,387.284,185.67,368.64,185.67z"/>
	<path style="fill:#FE9F88;" d="M256,101.275v236.308c55.933,0,101.275-45.342,101.275-101.275v-33.758
		C357.275,146.617,311.933,101.275,256,101.275z"/>
</g>
<path style="fill:#FEC8BB;" d="M323.517,236.308v-33.758c0-55.933-30.228-101.275-67.517-101.275
	c-55.933,0-101.275,45.342-101.275,101.275v33.758c0,55.933,45.342,101.275,101.275,101.275
	C293.288,337.582,323.517,292.241,323.517,236.308z"/>
<circle style="fill:#FE9F88;" cx="194.11" cy="236.308" r="16.879"/>
<path style="fill:#FD7555;" d="M323.517,220.41l-11.679,15.889l10.817,16.195c7-2.058,12.115-8.519,12.115-16.186
	C334.769,228.962,330.068,222.729,323.517,220.41z"/>
<path style="fill:#FE9F88;" d="M323.517,220.41c-1.762-0.625-3.65-0.981-5.626-0.981c-9.322,0-16.879,7.557-16.879,16.879
	c0,9.322,7.557,16.879,16.879,16.879c1.656,0,3.252-0.249,4.764-0.693c0.565-5.271,0.862-10.677,0.862-16.186V220.41z"/>
<g>
	<path style="fill:#B4462F;" d="M226.18,216.615c-3.675,0-6.801-2.348-7.959-5.626h-11.171c-4.662,0-8.44-3.778-8.44-8.44
		c0-4.662,3.778-8.44,8.44-8.44h19.13c4.662,0,8.44,3.778,8.44,8.44v5.626C234.62,212.838,230.841,216.615,226.18,216.615z"/>
	<path style="fill:#B4462F;" d="M285.82,216.615c-4.662,0-8.44-3.778-8.44-8.44v-5.626c0-4.662,3.778-8.44,8.44-8.44h19.13
		c4.662,0,8.44,3.778,8.44,8.44c0,4.662-3.778,8.44-8.44,8.44h-11.171C292.621,214.267,289.494,216.615,285.82,216.615z"/>
</g>
<path style="fill:#EF431D;" d="M256,274.73c-11.883,0-22.539-7.521-26.518-18.716c-1.562-4.392,0.733-9.218,5.126-10.779
	c4.387-1.565,9.217,0.731,10.778,5.124c1.593,4.481,5.859,7.491,10.616,7.491c4.757,0,9.022-3.01,10.616-7.491
	c1.561-4.391,6.389-6.689,10.778-5.124c4.392,1.561,6.686,6.387,5.126,10.779C278.539,267.209,267.882,274.73,256,274.73z"/>
<g>
	<polygon style="fill:#99D9FF;" points="154.725,84.396 160.496,168.791 351.504,168.791 357.275,84.396 	"/>
	<path style="fill:#99D9FF;" d="M340.396,22.505v112.527c31.073,0,56.264-25.19,56.264-56.264S371.469,22.505,340.396,22.505z"/>
</g>
<path style="fill:#CCECFF;" d="M362.901,78.769c0-31.073-10.076-56.264-22.505-56.264c-10.281,0-19.908,2.77-28.202,7.587
	C300.089,11.953,279.443,0,256,0s-44.089,11.953-56.194,30.092c-8.293-4.816-17.921-7.587-28.202-7.587
	c-31.073,0-56.264,25.19-56.264,56.264s25.19,56.264,56.264,56.264c15.64,0,29.786-6.386,39.983-16.688
	c11.873,10.383,27.402,16.688,44.412,16.688c17.011,0,32.54-6.305,44.412-16.688c10.197,10.302,24.343,16.688,39.983,16.688
	C352.825,135.033,362.901,109.843,362.901,78.769z"/>
<g>
	<circle style="fill:#FFFFFF;" cx="281.319" cy="469.802" r="8.44"/>
	<circle style="fill:#FFFFFF;" cx="281.319" cy="402.286" r="8.44"/>
</g>
</svg>