<?xml version="1.0" encoding="iso-8859-1"?>
<!-- Uploaded to: SVG Repo, www.svgrepo.com, Generator: SVG Repo Mixer Tools -->
<svg height="800px" width="800px" version="1.1" id="Layer_1" xmlns="http://www.w3.org/2000/svg" xmlns:xlink="http://www.w3.org/1999/xlink" 
	 viewBox="0 0 512 512" xml:space="preserve">
<path style="fill:#C1D560;" d="M242.766,32.278l-71.505,33.787L99.858,32.278C117.664,12.805,143.071,0,171.261,0
	C199.508,0,224.95,12.738,242.766,32.278z"/>
<path style="fill:#EF431D;" d="M385.675,32.278l-71.505,33.787l-71.403-33.787C260.572,12.805,285.981,0,314.17,0
	C342.416,0,367.858,12.738,385.675,32.278z"/>
<path style="fill:#C1D560;" d="M269.234,479.722l71.505-33.787l71.403,33.787C394.336,499.195,368.929,512,340.739,512
	C312.492,512,287.05,499.262,269.234,479.722z"/>
<path style="fill:#EF431D;" d="M126.325,479.722l71.505-33.787l71.403,33.787C251.427,499.195,226.019,512,197.829,512
	C169.584,512,144.142,499.262,126.325,479.722z"/>
<path style="fill:#C1D560;" d="M32.283,242.761l33.787,71.506L32.283,385.67c-19.472-17.806-32.278-43.214-32.278-71.403
	C0.006,286.02,12.744,260.578,32.283,242.761z"/>
<path style="fill:#EF431D;" d="M32.283,99.852l33.787,71.505l-33.787,71.403c-19.472-17.805-32.278-43.213-32.278-71.403
	C0.006,143.111,12.744,117.67,32.283,99.852z"/>
<path style="fill:#C1D560;" d="M479.717,269.227l-33.787-71.505l33.787-71.403c19.472,17.806,32.278,43.213,32.278,71.403
	C511.994,225.969,499.256,251.411,479.717,269.227z"/>
<path style="fill:#EF431D;" d="M479.717,412.136l-33.787-71.505l33.787-71.403c19.472,17.806,32.278,43.213,32.278,71.403
	C511.994,368.877,499.256,394.319,479.717,412.136z"/>
<path style="fill:#FDA162;" d="M385.675,32.278H99.858c-37.166,0-67.575,30.409-67.575,67.575V385.67
	c0,6.036,0.799,11.892,2.32,17.479l31.456-31.456L371.676,66.065l31.478-31.478C397.568,33.078,391.712,32.278,385.675,32.278z"/>
<g>
	<path style="fill:#CB9385;" d="M66.059,371.692l-31.456,31.456c3.108,11.589,9.258,21.984,17.525,30.251l23.887-23.887
		L66.059,371.692z"/>
	<path style="fill:#CB9385;" d="M403.154,34.587l-31.478,31.478l37.83,9.956l23.9-23.899
		C425.139,43.856,414.744,37.706,403.154,34.587z"/>
</g>
<path style="fill:#FDFA7B;" d="M409.507,76.021L76.016,409.512c-6.419-6.419-9.956-14.889-9.956-23.842v-13.976l77.531-228.098
	l228.086-77.531h13.999C394.629,66.065,403.086,69.601,409.507,76.021z"/>
<path style="fill:#FEFDCA;" d="M371.676,66.065L66.059,371.694V99.852c0.011-8.953,3.536-17.423,9.956-23.831
	c6.419-6.419,14.889-9.956,23.842-9.956C99.858,66.065,371.676,66.065,371.676,66.065z"/>
<path style="fill:#CB9385;" d="M459.872,78.589l-23.899,23.899l-57.618,377.234h33.787c37.166,0,67.575-30.409,67.575-67.575
	V126.319C479.717,107.736,472.114,90.842,459.872,78.589z"/>
<path style="fill:#FDA162;" d="M102.482,435.979l-23.887,23.887c12.254,12.254,29.147,19.855,47.73,19.855h252.03
	c37.166,0,67.575-30.409,67.575-67.575L102.482,435.979z"/>
<path style="fill:#FDFA7B;" d="M435.973,102.488l-23.831,23.831l-33.787,319.605h33.787c8.953,0,17.412-3.537,23.831-9.945
	c6.419-6.42,9.956-14.878,9.956-23.831V126.319C445.929,117.366,442.392,108.897,435.973,102.488z"/>
<path style="fill:#FEFDCA;" d="M412.142,126.319v285.817c0,8.953-3.536,17.423-9.956,23.842c-6.419,6.408-14.878,9.945-23.831,9.945
	h-252.03c-8.953,0-17.423-3.536-23.842-9.945L412.142,126.319z"/>
<g>
	<circle style="fill:#FDA162;" cx="122.381" cy="189.949" r="8.447"/>
	<circle style="fill:#FDA162;" cx="156.165" cy="223.733" r="8.447"/>
	<circle style="fill:#FDA162;" cx="389.625" cy="387.486" r="8.447"/>
</g>
</svg>