<?xml version="1.0" encoding="iso-8859-1"?>
<!-- Uploaded to: SVG Repo, www.svgrepo.com, Generator: SVG Repo Mixer Tools -->
<svg version="1.1" id="Layer_1" xmlns="http://www.w3.org/2000/svg" xmlns:xlink="http://www.w3.org/1999/xlink" 
	 viewBox="0 0 512 512" xml:space="preserve">
<polygon style="fill:#FDFA7B;" points="423.249,22.505 366.985,22.505 338.853,106.901 310.721,22.505 254.457,22.505 
	231.952,213.802 445.754,213.802 "/>
<polygon style="fill:#FDCE6E;" points="220.699,191.297 254.457,258.813 423.249,258.813 457.007,191.297 "/>
<g>
	<polygon style="fill:#FDA162;" points="479.512,191.297 479.512,258.813 423.249,258.813 423.249,191.297 451.38,168.791 	"/>
	<polygon style="fill:#FDA162;" points="366.985,191.297 366.985,258.813 310.721,258.813 310.721,191.297 338.853,168.791 	"/>
	<polygon style="fill:#FDA162;" points="254.457,191.297 254.457,258.813 198.194,258.813 198.194,191.297 226.325,168.791 	"/>
</g>
<g>
	<rect x="423.25" style="fill:#FDCE6E;" width="56.264" height="191.297"/>
	<rect x="310.722" style="fill:#FDCE6E;" width="56.264" height="191.297"/>
	<rect x="198.195" style="fill:#FDCE6E;" width="56.264" height="191.297"/>
</g>
<path style="fill:#B4462F;" d="M479.512,225.055h-33.758L457.007,512h33.758l19.861-253.288
	C512.078,240.201,498.079,225.055,479.512,225.055z"/>
<path style="fill:#EF431D;" d="M445.754,225.055c18.567,0,32.565,15.146,31.114,33.657L457.007,512H186.941L167.08,258.712
	c-1.452-18.511,12.547-33.657,31.114-33.657H445.754z"/>
<rect x="35.03" y="399.473" style="fill:#B4462F;" width="331.956" height="56.264"/>
<rect x="35.03" y="298.198" style="fill:#84B044;" width="331.956" height="56.264"/>
<path style="fill:#975D50;" d="M366.985,343.209h-33.758v67.516h33.758c18.567,0,33.758-15.191,33.758-33.758
	C400.743,358.4,385.552,343.209,366.985,343.209z"/>
<path style="fill:#B1786B;" d="M333.227,343.209c18.567,0,33.758,15.191,33.758,33.758c0,18.567-15.191,33.758-33.758,33.758H35.029
	c-18.567,0-33.758-15.191-33.758-33.758c0-18.567,15.191-33.758,33.758-33.758H333.227z"/>
<path style="fill:#FD7555;" d="M355.732,444.484L288.216,512h33.758c37.292,0,67.516-30.225,67.516-67.516H355.732z"/>
<polygon style="fill:#FDFA7B;" points="389.49,275.692 389.49,309.451 344.479,309.451 201.007,376.967 201.007,241.934 "/>
<polygon style="fill:#FEFDCA;" points="347.54,275.692 201.007,376.967 57.534,309.451 12.523,309.451 12.523,275.692 
	201.007,241.934 "/>
<path style="fill:#FD7555;" d="M288.216,129.407h-33.758l101.275,146.286h33.758v-50.637
	C389.49,172.448,343.917,129.407,288.216,129.407z"/>
<g>
	<path style="fill:#FDA162;" d="M12.523,444.484h343.209c0,37.292-30.225,67.516-67.516,67.516H80.04
		C42.748,512,12.523,481.775,12.523,444.484z"/>
	<path style="fill:#FDA162;" d="M355.732,225.055v50.637H12.523v-50.637c0-52.607,45.574-95.648,101.275-95.648h140.659
		C310.158,129.407,355.732,172.448,355.732,225.055z"/>
</g>
<g>
	<circle style="fill:#FEFDCA;" cx="122.239" cy="185.67" r="8.44"/>
	<circle style="fill:#FEFDCA;" cx="161.623" cy="219.429" r="8.44"/>
	<circle style="fill:#FEFDCA;" cx="240.393" cy="219.429" r="8.44"/>
	<circle style="fill:#FEFDCA;" cx="201.008" cy="185.67" r="8.44"/>
	<circle style="fill:#FEFDCA;" cx="279.777" cy="185.67" r="8.44"/>
</g>
</svg>