<?xml version="1.0" encoding="iso-8859-1"?>
<!-- Uploaded to: SVG Repo, www.svgrepo.com, Generator: SVG Repo Mixer Tools -->
<svg version="1.1" id="Layer_1" xmlns="http://www.w3.org/2000/svg" xmlns:xlink="http://www.w3.org/1999/xlink" 
	 viewBox="0 0 512 512" xml:space="preserve">
<path style="fill:#84B044;" d="M264.17,83.301V38.128c0-4.513-3.658-8.17-8.17-8.17c-4.512,0-8.17,3.657-8.17,8.17v45.172
	c-7.982,3.233-13.617,11.047-13.617,20.189c0,12.033,0,108.936,0,108.936h43.574c0,0,0-96.903,0-108.936
	C277.787,94.349,272.152,86.535,264.17,83.301z"/>
<rect x="329.53" y="133.446" style="fill:#66C6FE;" width="16.34" height="70.808"/>
<g>
	<rect x="166.127" y="133.446" style="fill:#99D9FF;" width="16.34" height="70.808"/>
	<path style="fill:#99D9FF;" d="M317.276,99.405v31.319c0,11.263,9.163,20.425,20.425,20.425s20.425-9.163,20.425-20.425V99.405
		C358.127,99.405,317.276,99.405,317.276,99.405z"/>
</g>
<path style="fill:#CCECFF;" d="M153.873,130.724c0,11.263,9.163,20.425,20.425,20.425s20.425-9.163,20.425-20.425V99.405h-40.851
	V130.724z"/>
<path style="fill:#B1786B;" d="M168.854,379.452v94.419c0,4.513,3.658,8.17,8.17,8.17s8.17-3.657,8.17-8.17v-94.419H168.854z"/>
<polygon style="fill:#FD7555;" points="32.682,299.574 32.682,332.255 70.809,332.255 81.703,315.915 70.809,299.574 "/>
<rect x="70.808" y="299.573" style="fill:#EF431D;" width="106.212" height="32.681"/>
<path style="fill:#B1786B;" d="M32.682,482.041c-4.512,0-8.17-3.657-8.17-8.17V300.184L0.091,137.382
	c-0.669-4.462,2.405-8.622,6.867-9.291c4.47-0.667,8.622,2.405,9.292,6.868l24.511,163.404c0.06,0.401,0.09,0.806,0.09,1.211
	v174.297C40.852,478.384,37.194,482.041,32.682,482.041z"/>
<path style="fill:#975D50;" d="M326.806,379.452v94.419c0,4.513,3.658,8.17,8.17,8.17s8.17-3.657,8.17-8.17v-94.419H326.806z"/>
<polygon style="fill:#FD7555;" points="441.191,299.574 430.297,315.915 441.191,332.255 479.318,332.255 479.318,299.574 "/>
<rect x="334.977" y="299.573" style="fill:#EF431D;" width="106.212" height="32.681"/>
<path style="fill:#975D50;" d="M479.318,482.041c-4.512,0-8.17-3.657-8.17-8.17V299.574c0-0.405,0.031-0.81,0.09-1.211
	l24.511-163.404c0.669-4.464,4.824-7.544,9.292-6.868c4.462,0.669,7.536,4.83,6.867,9.291l-24.42,162.801V473.87
	C487.488,478.384,483.83,482.041,479.318,482.041z"/>
<path style="fill:#B1786B;" d="M373.106,379.452v94.419c0,4.513,3.658,8.17,8.17,8.17s8.17-3.657,8.17-8.17v-94.419H373.106z"/>
<path style="fill:#CB9385;" d="M122.554,379.452v94.419c0,4.513,3.658,8.17,8.17,8.17c4.512,0,8.17-3.657,8.17-8.17v-94.419H122.554
	z"/>
<path style="fill:#FDA162;" d="M107.516,223.319l-2.827,65.016l276.264,145.424c8.105,4.075,17.513,7.432,33.004,7.432
	l-9.473-217.871H107.516z"/>
<path style="fill:#FDCE6E;" d="M104.674,288.681l-6.631,152.51c39.49,0,39.49-21.787,78.981-21.787s39.49,21.787,78.981,21.787
	c39.488,0,39.488-21.787,78.977-21.787c23.996,0,33.416,8.043,45.971,14.356l-6.307-145.078L104.674,288.681L104.674,288.681z"/>
<polygon style="fill:#FDFA7B;" points="413.957,190.638 381.276,190.638 360.909,223.319 384.117,256 416.798,256 "/>
<polygon style="fill:#FEFDCA;" points="98.043,190.638 95.201,256 384.117,256 381.276,190.638 "/>
</svg>