<?xml version="1.0" encoding="iso-8859-1"?>
<!-- Uploaded to: SVG Repo, www.svgrepo.com, Generator: SVG Repo Mixer Tools -->
<svg height="800px" width="800px" version="1.1" id="Layer_1" xmlns="http://www.w3.org/2000/svg" xmlns:xlink="http://www.w3.org/1999/xlink" 
	 viewBox="0 0 512 512" xml:space="preserve">
<path style="fill:#B1786B;" d="M419.165,0h-33.758v512h33.758c18.567,0,33.758-15.191,33.758-33.758V33.758
	C452.923,15.191,437.732,0,419.165,0z"/>
<path style="fill:#CB9385;" d="M364.851,256l54.314-222.242C419.165,15.191,403.974,0,385.407,0h-42.198L256,23.74L168.791,0H92.835
	C74.268,0,59.077,15.191,59.077,33.758v444.484c0,18.567,15.191,33.758,33.758,33.758h292.571c18.567,0,33.758-15.191,33.758-33.758
	L364.851,256z"/>
<polygon style="fill:#CCECFF;" points="419.165,33.758 419.165,478.242 385.407,478.242 329.143,256 385.407,33.758 "/>
<polygon style="fill:#5389A9;" points="326.33,0 334.769,56.264 244.747,56.264 301.011,0 "/>
<polygon style="fill:#66C6FE;" points="301.011,0 301.011,56.264 177.231,56.264 185.67,0 "/>
<polygon style="fill:#FFFFFF;" points="92.835,33.758 92.835,478.242 317.89,478.242 385.407,478.242 385.407,33.758 "/>
<g>
	<path style="fill:#66C6FE;" d="M326.33,0v61.89c0,4.654-3.785,8.44-8.44,8.44H194.11c-4.654,0-8.44-3.785-8.44-8.44V0h-16.879
		v61.89c0,13.961,11.357,25.319,25.319,25.319h123.78c13.96,0,25.319-11.357,25.319-25.319V0H326.33z"/>
	<path style="fill:#66C6FE;" d="M316.484,318.458v83.26c0,4.661,3.779,8.44,8.44,8.44s8.44-3.779,8.44-8.44v-64.136L316.484,318.458
		z"/>
</g>
<path style="fill:#99D9FF;" d="M333.363,228.431v109.152h-22.505c-12.434,0-22.505-10.071-22.505-22.505v-86.646
	c0-12.423,10.071-22.506,22.505-22.506C323.291,205.925,333.363,216.008,333.363,228.431z"/>
<path style="fill:#66C6FE;" d="M212.396,295.953v105.766c0,4.661,3.779,8.44,8.44,8.44s8.44-3.779,8.44-8.44V295.953H212.396z"/>
<g>
	<path style="fill:#99D9FF;" d="M220.835,205.925c-4.661,0-8.44,3.779-8.44,8.44v67.516h16.879v-67.516
		C229.275,209.704,225.496,205.925,220.835,205.925z"/>
	<path style="fill:#99D9FF;" d="M254.593,205.925c-4.661,0-8.44,3.779-8.44,8.44v67.516l16.879-16.312v-51.204
		C263.033,209.704,259.254,205.925,254.593,205.925z"/>
	<path style="fill:#99D9FF;" d="M187.077,205.925c-4.661,0-8.44,3.779-8.44,8.44v51.204l16.879,16.312v-67.516
		C195.516,209.704,191.738,205.925,187.077,205.925z"/>
	<path style="fill:#99D9FF;" d="M263.033,265.007v16.879c0,23.307-18.891,42.198-42.198,42.198s-42.198-18.891-42.198-42.198
		v-16.879h42.198H263.033z"/>
</g>
<path style="fill:#5389A9;" d="M182.859,177.799c-2.274,0-4.54-0.914-6.205-2.716c-3.161-3.425-2.947-8.765,0.478-11.926
	l24.388-22.505c3.234-2.983,8.217-2.982,11.449,0.001l18.654,17.221l18.663-17.222c3.234-2.983,8.217-2.982,11.449,0.001
	l18.653,17.22l18.653-17.22c3.233-2.985,8.216-2.984,11.451,0l24.377,22.505c3.424,3.162,3.637,8.501,0.476,11.926
	c-3.163,3.424-8.503,3.638-11.927,0.476l-18.651-17.22l-18.653,17.22c-3.234,2.984-8.217,2.983-11.451,0l-18.654-17.221
	l-18.663,17.222c-3.234,2.983-8.216,2.983-11.449-0.001l-18.654-17.221l-18.663,17.222
	C186.959,177.059,184.906,177.799,182.859,177.799z"/>
</svg>