<?xml version="1.0" encoding="utf-8"?>
<!-- Generator: Adobe Illustrator 21.0.0, SVG Export Plug-In . SVG Version: 6.00 Build 0)  -->
<svg version="1.1" id="Capa_1" xmlns="http://www.w3.org/2000/svg" xmlns:xlink="http://www.w3.org/1999/xlink" x="0px" y="0px"
	 viewBox="0 0 240.9 321.5" style="enable-background:new 0 0 240.9 321.5;" xml:space="preserve">
<g>
	<path d="M240.9,69.1c-0.9,2.6-1.9,5.2-2.6,7.9c-4.1,17.5-22,31.2-40.7,30.1c-4.8-0.3-6.5,0.9-6.9,6c-1.5,16.5-3.8,33-5.7,49.5
		c-0.9,7.9-1.8,9.3-10.2,10.2c-13.4,1.4-26.8,3.1-40.2,3.1c-16.2,0-32.4-1.8-48.7-2.7c-3.6-0.2-5.2-1.5-5.5-5.3
		c-1.4-19.9-4.8-39.7-1.5-59.6c0-0.3-0.2-0.6-0.4-1.3c-1.3-0.1-2.7-0.3-4.2-0.3C56.3,106,40,95,34.4,77.6
		C26.8,53.7,39,25.2,66.8,22.9c5.3-0.4,10.8,1.1,16.1,2.4c3.5,0.9,5.4,0.8,7.8-2.5c18.7-26.6,55.2-29.3,77.5-11.5
		c2,1.6,4.2,3.6,5.3,5.8c2.2,4.5,5,5,9.6,4c13.5-3.1,26.6-1,38,6.9c10.8,7.5,17.5,18,19,31.4c0.1,0.6,0.5,1.2,0.8,1.7
		C240.9,63.8,240.9,66.4,240.9,69.1z"/>
	<path d="M58.3,321.5c-7.2-3.1-15-5.4-21.5-9.6c-11-7.1-17.8-18.5-23.2-30C-1.8,248.2-4,213.3,6.4,177.7c0.5-1.7,1.5-3.4,1.9-5.1
		c0.7-4,2.8-5.3,7.3-3.8c0.6,5.7,1.1,11.8,1.9,17.8c3.2,24,10.1,46.9,23.5,67.2c6.1,9.4,14,17.6,21,26.3c2.5,3,5.6,4.4,9.6,4
		c2.3-0.2,4.6,0,7,0.2c5.1,0.4,9.5,0.2,12.1-5.7c1.8-3.9,5-7.4,8.1-10.4c1.5-1.5,4.4-2.3,6.7-2.3c18.1-0.1,36.3,0,54.4,0.2
		c6.8,0.1,9.9,3.7,9.7,11.4c-1.8,0-3.6,0-5.4,0c-22.1,0-44.2,0-66.4,0c-2.8,0-4.3,0.7-5.7,3.4c-3.9,7.5-8.4,14.6-12.5,22
		c-0.7,1.1-1.2,2.4-1.5,3.7c-1.5,6.9-5.2,12-11.7,15C63.6,321.5,61,321.5,58.3,321.5z"/>
	<path d="M201.1,168.6c0.7,24.5-0.6,48.4-17.5,67.4c-21.6,24.4-51,30.7-80.9,17.9c-12.7-5.4-22.7-14.4-28.9-27.5
		c-8.1-17-13.3-34.3-9.5-53.4c0.4-2.2,0.4-5.7,4.1-4.8c3,0.7,5.4,2,5,6.5c-0.5,7-0.1,14.2,0.5,21.3c0.6,7.2,5,12.3,10.4,16.9
		c20.9,17.5,45,18.8,70.1,13.5c10.2-2.2,19.5-7,27.5-14.2c10.4-9.5,10.5-21.7,9.9-34.1C191.5,169.4,191.2,169.4,201.1,168.6z"/>
	<path d="M218.6,321.5c-11.9,0-23.5,0.1-35.1-0.1c-1.3,0-3.2-1.7-3.6-2.9c-1.3-3.7-2.1-7.7-2.8-11.6c-1.4-7.5-2.5-15.1-3.8-22.6
		c-0.3-1.9-0.5-3.8-0.9-6.1C190.7,287.3,217,311.8,218.6,321.5z"/>
</g>
</svg>
